<?xml version="1.0" standalone="no"?>
<!DOCTYPE svg PUBLIC "-//W3C//DTD SVG 20010904//EN"
 "http://www.w3.org/TR/2001/REC-SVG-20010904/DTD/svg10.dtd">
<svg version="1.0" xmlns="http://www.w3.org/2000/svg"
 width="1920.000000pt" height="1080.000000pt" viewBox="0 0 1920.000000 1080.000000"
 preserveAspectRatio="xMidYMid meet">

<g transform="translate(0.000000,1080.000000) scale(0.100000,-0.100000)"
fill="#000000" stroke="none">
<path d="M9422 5548 l-2 -48 68 2 67 2 -62 3 -62 4 -4 42 -4 42 -1 -47z"/>
<path d="M10013 5405 c0 -38 2 -53 4 -32 2 20 2 52 0 70 -2 17 -4 1 -4 -38z"/>
<path d="M9080 5300 l0 -130 63 2 62 2 -57 3 -58 4 0 119 0 119 53 4 52 3 -57
2 -58 2 0 -130z"/>
<path d="M9902 5398 c-2 -31 1 -38 17 -38 11 0 22 -6 24 -12 4 -10 6 -10 6 0
1 8 -8 16 -18 19 -13 3 -21 16 -24 37 -4 29 -4 29 -5 -6z"/>
<path d="M9838 5363 c6 -2 18 -2 25 0 6 3 1 5 -13 5 -14 0 -19 -2 -12 -5z"/>
<path d="M9809 5347 c6 -8 7 -18 3 -22 -4 -5 -1 -5 6 -1 10 6 10 11 1 22 -6 8
-14 14 -16 14 -3 0 0 -6 6 -13z"/>
<path d="M9902 5263 c-1 -54 -6 -83 -14 -86 -10 -4 -10 -6 0 -6 19 -1 23 19
19 100 l-3 74 -2 -82z"/>
<path d="M10142 5253 c-2 -87 -21 -98 -24 -15 l-2 57 -3 -54 c-4 -56 8 -84 27
-65 7 7 9 40 7 80 l-3 69 -2 -72z"/>
<path d="M10012 5243 c-1 -38 -7 -63 -14 -66 -10 -4 -10 -6 0 -6 19 -1 24 20
19 80 l-3 54 -2 -62z"/>
<path d="M9288 5173 c12 -2 32 -2 45 0 12 2 2 4 -23 4 -25 0 -35 -2 -22 -4z"/>
<path d="M9458 5173 c17 -2 47 -2 65 0 17 2 3 4 -33 4 -36 0 -50 -2 -32 -4z"/>
</g>
</svg>
